<?xml version="1.0" encoding="utf-8"?>
<!-- Generator: Adobe Illustrator 22.0.1, SVG Export Plug-In . SVG Version: 6.00 Build 0)  -->
<svg version="1.0" id="Layer_1" xmlns="http://www.w3.org/2000/svg" xmlns:xlink="http://www.w3.org/1999/xlink" x="0px" y="0px"
	 viewBox="0 0 135.2 139.2" style="enable-background:new 0 0 135.2 139.2;" xml:space="preserve">
<style type="text/css">
	.st0{fill:#FFFFFF;}
	.st1{fill:none;stroke:#FFFFFF;stroke-width:1.565;stroke-miterlimit:10;}
</style>
<g>
	<polygon class="st0" points="71.8,124.6 65.7,133.4 67,134.3 73.8,124.6 	"/>
	<polygon class="st0" points="75.7,124.6 65.5,139 65.8,139.2 67.4,139.2 77.7,124.6 	"/>
	<rect x="76.1" y="124.6" class="st0" width="1.6" height="14.6"/>
	<rect x="58.5" y="124.6" class="st0" width="1.7" height="14.6"/>
	<polygon class="st0" points="69,139.2 71,139.2 77.8,129.7 76.4,128.7 	"/>
	<polygon class="st0" points="58.5,129.3 58.5,129.7 65.2,139.2 67.2,139.2 59.6,128.5 	"/>
	<polygon class="st0" points="58.6,124.6 67.2,136.7 68.5,135.8 60.6,124.6 	"/>
	<polygon class="st0" points="62.6,124.6 67.7,131.9 69,131 64.6,124.6 	"/>
	<polyline class="st1" points="46.1,132 0.8,132 0.8,0.8 134.4,0.8 134.4,132 90,132 	"/>
	<g>
		<path class="st0" d="M28.4,41.9c1.2-1.4,2.9-3.4,4.1-4.8c0.8-0.9,1.2-1.7,1.2-2.4c0-0.8-0.6-1.8-2-1.8c-0.9,0-1.6,0.6-2.1,1.1
			c-0.1,0.1-0.3,0.1-0.4,0l-0.5-0.6c-0.1-0.1-0.1-0.3,0-0.4c0,0,1.2-1.6,3.1-1.6c2.3,0,3.5,1.5,3.5,3.2c0,1.2-0.7,2.1-1.6,3.2
			c-0.9,1-2,2.4-2.9,3.4H35c0.2,0,0.3,0.1,0.3,0.3v0.8c0,0.2-0.1,0.3-0.3,0.3h-6.3c-0.2,0-0.3-0.1-0.3-0.3V41.9z"/>
		<path class="st0" d="M44.2,37.2c0-3.5,1.5-5.7,4-5.7c2.5,0,4,2.1,4,5.7c0,3.5-1.5,5.7-4,5.7C45.6,42.8,44.2,40.7,44.2,37.2z
			 M50.5,37.2c0-2.7-0.9-4.2-2.4-4.2c-1.5,0-2.4,1.5-2.4,4.2c0,2.7,0.9,4.2,2.4,4.2C49.7,41.4,50.5,39.8,50.5,37.2z"/>
		<path class="st0" d="M61.2,37.2c0-3.5,1.5-5.7,4-5.7c2.5,0,4,2.1,4,5.7c0,3.5-1.5,5.7-4,5.7C62.7,42.8,61.2,40.7,61.2,37.2z
			 M67.6,37.2c0-2.7-0.9-4.2-2.4-4.2c-1.5,0-2.4,1.5-2.4,4.2c0,2.7,0.9,4.2,2.4,4.2C66.8,41.4,67.6,39.8,67.6,37.2z"/>
		<path class="st0" d="M78.8,31.6c0-0.2,0.1-0.3,0.3-0.3h1.1c0.2,0,0.3,0.1,0.3,0.3v4.5h5.9v-4.5c0-0.2,0.1-0.3,0.3-0.3h1.1
			c0.2,0,0.3,0.1,0.3,0.3v10.7c0,0.2-0.1,0.3-0.3,0.3h-1.1c-0.2,0-0.3-0.1-0.3-0.3v-4.7h-5.9v4.7c0,0.2-0.1,0.3-0.3,0.3h-1.1
			c-0.2,0-0.3-0.1-0.3-0.3V31.6z"/>
		<path class="st0" d="M98.1,31.6c0-0.2,0.1-0.3,0.3-0.3h4.4c1.9,0,3.5,1.5,3.5,3.5c0,1.5-1,2.7-2.4,3.3l2.2,4.1
			c0.1,0.2,0,0.5-0.3,0.5h-1.3c-0.1,0-0.2-0.1-0.3-0.1l-2.2-4.3h-2.4v4.1c0,0.2-0.1,0.3-0.3,0.3h-1.1c-0.2,0-0.3-0.1-0.3-0.3V31.6z
			 M102.7,36.8c1.1,0,2-0.9,2-2c0-1.1-0.9-1.9-2-1.9h-2.9v3.9H102.7z"/>
	</g>
	<g>
		<path class="st0" d="M33.3,60.3h-3c-0.2,0-0.4-0.2-0.4-0.4v-1c0-0.2,0.1-0.4,0.4-0.4h7.9c0.2,0,0.4,0.2,0.4,0.4v1
			c0,0.2-0.1,0.4-0.4,0.4h-3v10.8c0,0.2-0.2,0.4-0.4,0.4h-1.2c-0.2,0-0.4-0.2-0.4-0.4V60.3z"/>
		<path class="st0" d="M53.3,58.9c0-0.2,0.1-0.4,0.4-0.4h5c2.2,0,4,1.8,4,4c0,1.7-1.1,3.1-2.7,3.7l2.5,4.7c0.1,0.2,0,0.5-0.3,0.5
			h-1.4c-0.1,0-0.3-0.1-0.3-0.2L58,66.4h-2.8v4.7c0,0.2-0.2,0.4-0.4,0.4h-1.2c-0.2,0-0.4-0.2-0.4-0.4V58.9z M58.5,64.8
			c1.2,0,2.3-1,2.3-2.3c0-1.2-1.1-2.2-2.3-2.2h-3.3v4.5H58.5z"/>
		<path class="st0" d="M75.7,71l5.7-12.4c0.1-0.1,0.2-0.2,0.3-0.2h0.2c0.1,0,0.3,0.1,0.3,0.2L87.8,71c0.1,0.2,0,0.5-0.3,0.5h-1.2
			c-0.2,0-0.4-0.1-0.4-0.3l-1.1-2.5h-6c-0.4,0.8-0.8,1.7-1.1,2.5c-0.1,0.1-0.2,0.3-0.4,0.3H76C75.8,71.5,75.6,71.2,75.7,71z
			 M84.1,67.1L81.8,62h-0.1l-2.3,5.1H84.1z"/>
		<path class="st0" d="M101.6,58.9c0-0.2,0.2-0.4,0.4-0.4h1.2c0.2,0,0.3,0.2,0.3,0.4v12.2c0,0.2-0.2,0.4-0.3,0.4H102
			c-0.2,0-0.4-0.2-0.4-0.4V58.9z"/>
	</g>
	<g>
		<path class="st0" d="M30,88.4c0-0.2,0.2-0.3,0.4-0.3h0.5l8,9.3h0v-8.7c0-0.2,0.1-0.4,0.4-0.4h1.2c0.2,0,0.4,0.2,0.4,0.4v12.4
			c0,0.2-0.2,0.3-0.4,0.3h-0.5l-8-9.5h0v9c0,0.2-0.1,0.4-0.4,0.4h-1.2c-0.2,0-0.4-0.2-0.4-0.4V88.4z"/>
		<path class="st0" d="M54.7,88.6c0-0.2,0.2-0.4,0.4-0.4h1.2c0.2,0,0.4,0.2,0.4,0.4v12.2c0,0.2-0.2,0.4-0.4,0.4h-1.2
			c-0.2,0-0.4-0.2-0.4-0.4V88.6z"/>
		<path class="st0" d="M70.7,88.4c0-0.2,0.2-0.3,0.4-0.3h0.5l8,9.3h0v-8.7c0-0.2,0.1-0.4,0.4-0.4H81c0.2,0,0.4,0.2,0.4,0.4v12.4
			c0,0.2-0.2,0.3-0.4,0.3h-0.5l-8-9.5h0v9c0,0.2-0.1,0.4-0.4,0.4H71c-0.2,0-0.4-0.2-0.4-0.4V88.4z"/>
		<path class="st0" d="M101.1,88.1c1.8,0,3.2,0.6,4.5,1.7c0.1,0.1,0.2,0.4,0,0.5c-0.3,0.3-0.6,0.6-0.8,0.9c-0.1,0.2-0.3,0.1-0.5,0
			c-0.9-0.8-2-1.3-3.1-1.3c-2.6,0-4.6,2.2-4.6,4.8c0,2.6,2,4.8,4.6,4.8c1.5,0,2.6-0.6,2.8-0.6v-2.1h-1.8c-0.2,0-0.4-0.1-0.4-0.3
			v-1.1c0-0.2,0.1-0.4,0.4-0.4h3.4c0.2,0,0.3,0.2,0.3,0.4c0,1.5,0,3,0,4.5c0,0.1-0.1,0.2-0.1,0.3c0,0-1.9,1.2-4.6,1.2
			c-3.7,0-6.6-2.9-6.6-6.6C94.5,91.1,97.4,88.1,101.1,88.1z"/>
	</g>
</g>
<g>
</g>
<g>
</g>
<g>
</g>
<g>
</g>
<g>
</g>
</svg>
