<?xml version="1.0" encoding="utf-8"?>
<!-- Generator: Adobe Illustrator 22.0.1, SVG Export Plug-In . SVG Version: 6.00 Build 0)  -->
<svg version="1.0" id="Layer_1" xmlns="http://www.w3.org/2000/svg" xmlns:xlink="http://www.w3.org/1999/xlink" x="0px" y="0px"
	 viewBox="0 0 113 161.4" style="enable-background:new 0 0 113 161.4;" xml:space="preserve">
<style type="text/css">
	.st0{fill:none;stroke:#FFFFFF;stroke-width:5;}
	.st1{fill:#FFFFFF;}
</style>
<g>
	<polygon class="st0" points="56.8,4.8 4.4,91 108.5,91 	"/>
	<polygon class="st0" points="56.7,27.7 25,79.8 88,79.8 	"/>
	<polygon class="st0" points="56.5,73.9 67.9,55.2 45.3,55.2 	"/>
	<g>
		<path class="st1" d="M5.6,126.6l1-1c0.2-0.2,0.4-0.2,0.5,0c0.1,0.1,1.2,1.1,2.5,1.1c1.1,0,2.1-0.8,2.1-1.9c0-1-1-2-2.8-2H7.8
			c-0.2,0-0.4-0.2-0.4-0.4v-1.3c0-0.3,0.1-0.4,0.4-0.4h1.1c1.6,0,2.5-0.8,2.5-1.8c0-1.1-0.9-1.8-1.9-1.8c-1,0-1.7,0.6-2,1
			c-0.1,0.2-0.4,0.2-0.5,0l-1-0.9c-0.2-0.1-0.1-0.4,0-0.5c0,0,1.5-1.8,3.8-1.8c2.3,0,4.3,1.4,4.3,3.7c0,1.5-1.2,2.7-2.1,3.1v0.1
			c0.9,0.4,2.4,1.5,2.4,3.3c0,2.3-1.8,3.9-4.6,3.9c-2.5,0-3.7-1.3-4.2-1.8C5.4,127,5.4,126.7,5.6,126.6z"/>
		<path class="st1" d="M17,121.9c0-4.4,1.8-7,5-7s5,2.6,5,7s-1.8,7-5,7S17,126.3,17,121.9z M24.4,121.9c0-3-0.9-4.6-2.4-4.6
			c-1.5,0-2.4,1.7-2.4,4.6c0,3,0.9,4.6,2.4,4.6C23.6,126.5,24.4,124.9,24.4,121.9z"/>
		<path class="st1" d="M30,121.9c0-4.4,1.8-7,5-7s5,2.6,5,7s-1.8,7-5,7S30,126.3,30,121.9z M37.5,121.9c0-3-0.9-4.6-2.4-4.6
			c-1.5,0-2.4,1.7-2.4,4.6c0,3,0.9,4.6,2.4,4.6C36.6,126.5,37.5,124.9,37.5,121.9z"/>
		<path class="st1" d="M48.5,115.1c0-0.2,0.2-0.4,0.4-0.4h1.9c0.2,0,0.4,0.2,0.4,0.4v5.3h6.5v-5.3c0-0.2,0.2-0.4,0.4-0.4h1.8
			c0.2,0,0.4,0.2,0.4,0.4v13.2c0,0.2-0.2,0.4-0.4,0.4h-1.8c-0.2,0-0.4-0.2-0.4-0.4v-5.5h-6.5v5.5c0,0.2-0.2,0.4-0.4,0.4h-1.9
			c-0.2,0-0.4-0.2-0.4-0.4V115.1z"/>
		<path class="st1" d="M70.6,114.5c4,0,7.2,3.2,7.2,7.2s-3.2,7.2-7.2,7.2s-7.2-3.2-7.2-7.2S66.6,114.5,70.6,114.5z M70.6,126.3
			c2.5,0,4.6-2.1,4.6-4.6s-2.1-4.6-4.6-4.6s-4.6,2.1-4.6,4.6S68.1,126.3,70.6,126.3z"/>
		<path class="st1" d="M80.7,115.1c0-0.2,0.2-0.4,0.4-0.4H83c0.2,0,0.4,0.2,0.4,0.4v8.2c0,1.7,1.2,3,2.9,3c1.7,0,2.9-1.3,2.9-3v-8.2
			c0-0.2,0.2-0.4,0.4-0.4h1.9c0.2,0,0.4,0.2,0.4,0.4v8.3c0,3-2.4,5.5-5.6,5.5c-3.1,0-5.6-2.5-5.6-5.5V115.1z"/>
		<path class="st1" d="M95.8,115.1c0-0.2,0.2-0.4,0.4-0.4h5.7c2.4,0,4.4,1.9,4.4,4.3c0,1.8-1.2,3.3-3,4l2.7,5.1
			c0.1,0.3,0,0.6-0.3,0.6h-2.1c-0.2,0-0.3-0.1-0.3-0.2l-2.7-5.3h-2.2v5.1c0,0.2-0.2,0.4-0.4,0.4h-1.8c-0.2,0-0.4-0.2-0.4-0.4V115.1z
			 M101.7,121.1c1.1,0,2-0.9,2-2c0-1.1-0.9-1.9-2-1.9h-3.3v4H101.7z"/>
	</g>
	<g>
		<path class="st1" d="M10.9,142.1H7.8c-0.2,0-0.4-0.2-0.4-0.4v-1.6c0-0.2,0.2-0.4,0.4-0.4h8.7c0.2,0,0.4,0.2,0.4,0.4v1.6
			c0,0.2-0.2,0.4-0.4,0.4h-3.1v11.2c0,0.2-0.2,0.4-0.4,0.4h-1.9c-0.2,0-0.4-0.2-0.4-0.4V142.1z"/>
		<path class="st1" d="M19.5,140.1c0-0.2,0.2-0.4,0.4-0.4h5.7c2.4,0,4.4,1.9,4.4,4.3c0,1.8-1.2,3.3-3,4l2.7,5.1
			c0.1,0.3,0,0.6-0.3,0.6h-2.1c-0.2,0-0.3-0.1-0.3-0.2l-2.7-5.3h-2.2v5.1c0,0.2-0.2,0.4-0.4,0.4h-1.8c-0.2,0-0.4-0.2-0.4-0.4V140.1z
			 M25.4,146.1c1.1,0,2-0.9,2-2c0-1.1-0.9-1.9-2-1.9h-3.3v4H25.4z"/>
		<path class="st1" d="M31.5,153.2l6.2-13.5c0.1-0.1,0.2-0.2,0.3-0.2h0.2c0.2,0,0.3,0.1,0.3,0.2l6.2,13.5c0.1,0.3,0,0.5-0.3,0.5
			h-1.7c-0.3,0-0.4-0.1-0.6-0.4l-1-2.2h-6l-1,2.2c-0.1,0.2-0.3,0.4-0.6,0.4h-1.7C31.5,153.7,31.4,153.4,31.5,153.2z M40.1,148.9
			l-2-4.4h-0.1l-2,4.4H40.1z"/>
		<path class="st1" d="M47.1,140.1c0-0.2,0.2-0.4,0.4-0.4h1.9c0.2,0,0.4,0.2,0.4,0.4v13.2c0,0.2-0.2,0.4-0.4,0.4h-1.9
			c-0.2,0-0.4-0.2-0.4-0.4V140.1z"/>
		<path class="st1" d="M53.8,139.8c0-0.2,0.2-0.4,0.4-0.4h0.5l8.3,8.8h0v-8.3c0-0.2,0.2-0.4,0.4-0.4h1.8c0.2,0,0.4,0.2,0.4,0.4v13.5
			c0,0.2-0.2,0.4-0.4,0.4h-0.5l-8.4-9.2h0v8.6c0,0.2-0.2,0.4-0.4,0.4h-1.8c-0.2,0-0.4-0.2-0.4-0.4V139.8z"/>
		<path class="st1" d="M69.8,140.1c0-0.2,0.2-0.4,0.4-0.4H72c0.2,0,0.4,0.2,0.4,0.4v13.2c0,0.2-0.2,0.4-0.4,0.4h-1.9
			c-0.2,0-0.4-0.2-0.4-0.4V140.1z"/>
		<path class="st1" d="M76.6,139.8c0-0.2,0.2-0.4,0.4-0.4h0.5l8.3,8.8h0v-8.3c0-0.2,0.2-0.4,0.4-0.4H88c0.2,0,0.4,0.2,0.4,0.4v13.5
			c0,0.2-0.2,0.4-0.4,0.4h-0.5l-8.4-9.2h0v8.6c0,0.2-0.2,0.4-0.4,0.4h-1.8c-0.2,0-0.4-0.2-0.4-0.4V139.8z"/>
		<path class="st1" d="M98.7,139.5c1.8,0,3.5,0.7,4.9,1.9c0.2,0.2,0.2,0.4,0,0.6l-1.2,1.3c-0.2,0.2-0.3,0.2-0.5,0
			c-0.9-0.8-1.9-1.2-3-1.2c-2.5,0-4.5,2.1-4.5,4.6c0,2.5,2,4.6,4.5,4.6c1.1,0,2-0.3,2.4-0.5v-1.7h-1.6c-0.2,0-0.4-0.2-0.4-0.4v-1.6
			c0-0.2,0.2-0.4,0.4-0.4h3.8c0.2,0,0.4,0.2,0.4,0.4v5.1c0,0.2-0.1,0.3-0.2,0.3c0,0-2.1,1.3-5,1.3c-4,0-7.2-3.2-7.2-7.2
			S94.7,139.5,98.7,139.5z"/>
	</g>
</g>
<g>
</g>
<g>
</g>
<g>
</g>
<g>
</g>
<g>
</g>
</svg>
