<?xml version="1.0" encoding="utf-8"?>
<!-- Generator: Adobe Illustrator 15.0.2, SVG Export Plug-In . SVG Version: 6.00 Build 0)  -->
<!DOCTYPE svg PUBLIC "-//W3C//DTD SVG 1.1//EN" "http://www.w3.org/Graphics/SVG/1.1/DTD/svg11.dtd">
<svg version="1.1" id="Layer_1" xmlns="http://www.w3.org/2000/svg" xmlns:xlink="http://www.w3.org/1999/xlink" x="0px" y="0px"
	 width="216px" height="163.87px" viewBox="0 0 216 163.87" enable-background="new 0 0 216 163.87" xml:space="preserve">
<polygon fill="#FFFFFF" points="149.381,0.064 80.758,98.307 95.707,108.751 171.633,0.064 "/>
<polygon fill="#FFFFFF" points="192.722,0.064 78.746,161.284 82.499,163.935 99.217,163.935 215.069,0.064 "/>
<rect x="197.668" y="0.065" fill="#FFFFFF" width="18.332" height="163.87"/>
<rect x="0" y="0.065" fill="#FFFFFF" width="18.75" height="163.87"/>
<polygon fill="#FFFFFF" points="117.894,163.936 140.234,163.936 216,56.779 201.093,46.249 "/>
<polygon fill="#FFFFFF" points="0,52.355 0,56.945 75.644,163.936 97.989,163.936 12.743,43.355 "/>
<polygon fill="#FFFFFF" points="1.484,0.064 97.663,136.109 112.565,125.58 23.832,0.064 "/>
<polygon fill="#FFFFFF" points="45.998,0.064 103.233,81.999 118.18,71.552 68.248,0.064 "/>
</svg>
