<?xml version="1.0" encoding="utf-8"?>
<!-- Generator: Adobe Illustrator 15.0.2, SVG Export Plug-In . SVG Version: 6.00 Build 0)  -->
<!DOCTYPE svg PUBLIC "-//W3C//DTD SVG 1.1//EN" "http://www.w3.org/Graphics/SVG/1.1/DTD/svg11.dtd">
<svg version="1.1" id="Layer_1" xmlns="http://www.w3.org/2000/svg" xmlns:xlink="http://www.w3.org/1999/xlink" x="0px" y="0px"
	 width="264.5px" height="55.715px" viewBox="148.83 127.633 264.5 55.715" enable-background="new 148.83 127.633 264.5 55.715"
	 xml:space="preserve">
<g id="Layer_2" display="none">
	<rect display="inline" width="560.16" height="303.84"/>
</g>
<path fill="#FFFFFF" d="M235.579,173.202c0-0.104,0.089-0.193,0.207-0.193h0.148c0.104,0,0.162,0.062,0.177,0.148l0.06,0.635
	c0.191-0.207,1.004-0.931,2.186-0.931c1.654,0,2.378,1.05,2.378,2.703v3.16c0,0.104-0.089,0.191-0.192,0.191h-0.266
	c-0.104,0-0.191-0.088-0.191-0.191v-3.16c0-1.358-0.636-2.067-1.758-2.067c-1.211,0-2.053,0.944-2.112,1.021v4.209
	c0,0.117-0.06,0.19-0.192,0.19h-0.28c-0.104,0-0.163-0.088-0.163-0.19v-5.524H235.579z"/>
<path fill="#FFFFFF" d="M252.753,172.861c1.551,0,2.673,1.138,2.673,2.703c0,0.236,0,0.576-0.222,0.576h-4.711
	c0.059,1.271,0.975,2.332,2.304,2.332c0.782,0,1.388-0.309,1.743-0.545c0.133-0.09,0.191-0.104,0.266,0l0.147,0.205
	c0.044,0.061,0.03,0.148-0.06,0.236c-0.295,0.297-1.226,0.695-2.141,0.695c-1.803,0-2.91-1.39-2.91-3.117
	C249.843,174.266,250.95,172.861,252.753,172.861z M254.776,175.607c0-1.151-0.694-2.155-2.023-2.155
	c-1.301,0-2.172,0.944-2.246,2.155H254.776z"/>
<path fill="#FFFFFF" d="M263.929,173.245c-0.044-0.134-0.044-0.236,0.089-0.236h0.325c0.074,0,0.162,0.029,0.191,0.134l1.389,4.653
	h0.015l1.758-4.801c0.03-0.104,0.089-0.134,0.177-0.134h0.06c0.074,0,0.147,0.043,0.177,0.134l1.758,4.801h0.016l1.389-4.653
	c0.029-0.104,0.117-0.134,0.191-0.134h0.325c0.133,0,0.133,0.104,0.089,0.236l-1.773,5.688c-0.029,0.104-0.088,0.133-0.177,0.133
	h-0.06c-0.073,0-0.147-0.045-0.177-0.133l-1.787-4.979h-0.015l-1.772,4.979c-0.03,0.088-0.104,0.133-0.178,0.133h-0.059
	c-0.089,0-0.147-0.029-0.178-0.133L263.929,173.245z"/>
<path fill="#FFFFFF" d="M279.979,173.245c-0.06-0.117-0.045-0.236,0.088-0.236h0.325c0.073,0,0.147,0.046,0.192,0.134l2.525,4.991
	h0.029l2.305-4.991c0.043-0.088,0.117-0.134,0.19-0.134h0.325c0.133,0,0.146,0.119,0.089,0.236l-4.639,9.985
	c-0.029,0.072-0.117,0.117-0.191,0.117h-0.34c-0.118,0-0.162-0.074-0.104-0.207l1.994-4.283L279.979,173.245z"/>
<path fill="#FFFFFF" d="M297.329,172.861c1.653,0,2.969,1.402,2.969,3.086c0,1.73-1.313,3.117-2.969,3.117
	c-1.669,0-2.97-1.389-2.97-3.117C294.359,174.266,295.66,172.861,297.329,172.861z M297.329,178.46c1.301,0,2.319-1.106,2.319-2.512
	c0-1.359-1.02-2.468-2.319-2.468c-1.313,0-2.334,1.107-2.334,2.468C294.995,177.354,296.016,178.46,297.329,178.46z"/>
<path fill="#FFFFFF" d="M309.479,173.202c0-0.104,0.09-0.193,0.192-0.193h0.179c0.088,0,0.161,0.062,0.176,0.162l0.061,0.606
	c0.146-0.207,0.738-0.916,1.846-0.916c0.473,0,0.799,0.134,0.916,0.177c0.133,0.045,0.207,0.147,0.162,0.269l-0.117,0.295
	c-0.045,0.104-0.134,0.116-0.236,0.073c-0.073-0.03-0.369-0.178-0.768-0.178c-1.152,0-1.715,0.931-1.759,1.021v4.209
	c0,0.117-0.06,0.19-0.192,0.19h-0.295c-0.104,0-0.162-0.088-0.162-0.19v-5.524H309.479z"/>
<path fill="#FFFFFF" d="M321.646,168.771c0-0.104,0.088-0.191,0.191-0.191h0.251c0.104,0,0.192,0.088,0.192,0.191v6.617l3.146-2.289
	c0.073-0.062,0.162-0.091,0.236-0.091h0.428c0.147,0,0.162,0.193,0.046,0.267l-3.177,2.334l3.56,3.059
	c0.119,0.104,0.045,0.25-0.074,0.25h-0.457c-0.088,0-0.162-0.014-0.295-0.117l-3.412-2.939v2.865c0,0.117-0.061,0.191-0.192,0.191
	h-0.28c-0.104,0-0.162-0.088-0.162-0.191V168.771L321.646,168.771z"/>
<g>
	<defs>
		<rect id="SVGID_1_" x="148.83" y="127.633" width="264.5" height="32.5"/>
	</defs>
	<clipPath id="SVGID_2_">
		<use xlink:href="#SVGID_1_"  overflow="visible"/>
	</clipPath>
	<g id="Layer_1_1_" display="none" clip-path="url(#SVGID_2_)">
		<g display="inline">
			<defs>
				<rect id="SVGID_3_" x="289.044" y="132.889" width="23.658" height="23.279"/>
			</defs>
			<defs>
				<rect id="SVGID_4_" x="289.044" y="132.889" width="23.658" height="23.279"/>
			</defs>
			<defs>
				<rect id="SVGID_5_" x="289.044" y="132.889" width="23.658" height="23.279"/>
			</defs>
			<defs>
				<rect id="SVGID_6_" x="289.044" y="132.889" width="23.658" height="23.279"/>
			</defs>
			<defs>
				<rect id="SVGID_7_" x="289.044" y="132.889" width="23.658" height="23.279"/>
			</defs>
			<clipPath id="SVGID_8_">
				<use xlink:href="#SVGID_3_"  overflow="visible"/>
			</clipPath>
			<clipPath id="SVGID_9_" clip-path="url(#SVGID_8_)">
				<use xlink:href="#SVGID_4_"  overflow="visible"/>
			</clipPath>
			<clipPath id="SVGID_10_" clip-path="url(#SVGID_9_)">
				<use xlink:href="#SVGID_5_"  overflow="visible"/>
			</clipPath>
			<clipPath id="SVGID_11_" clip-path="url(#SVGID_10_)">
				<use xlink:href="#SVGID_6_"  overflow="visible"/>
			</clipPath>
			<clipPath id="SVGID_12_" clip-path="url(#SVGID_11_)">
				<use xlink:href="#SVGID_7_"  overflow="visible"/>
			</clipPath>
			<g clip-path="url(#SVGID_12_)">
				<polygon fill="#22305A" points="312.055,132.889 300.872,143.426 289.689,132.889 289.044,132.889 289.044,156.168 
					291.669,156.168 291.669,138.389 300.833,147.058 310.096,138.367 310.096,156.168 312.702,156.168 312.702,132.889 				"/>
			</g>
			<g clip-path="url(#SVGID_12_)">
				<rect x="286.864" y="132.889" fill="none" width="28.019" height="23.279"/>
			</g>
			<g clip-path="url(#SVGID_12_)">
				
					<rect x="292.673" y="148.594" transform="matrix(0.7284 -0.6852 0.6852 0.7284 -20.3094 248.5845)" fill="#22305A" width="21.375" height="2.625"/>
			</g>
			<g clip-path="url(#SVGID_12_)">
				<polygon fill="#22305A" points="294.872,149.105 304.025,140.494 305.825,142.375 296.766,150.859 				"/>
			</g>
			<g clip-path="url(#SVGID_12_)">
				
					<rect x="278.17" y="140.318" transform="matrix(-0.7284 -0.6852 0.6852 -0.7284 402.2225 442.7077)" fill="#22305A" width="21.376" height="2.625"/>
			</g>
		</g>
		<g display="inline">
			<path fill="#22305A" d="M335.182,133.19h-0.457l-10.012,22.979h2.955l1.408-3.258h11.754l1.408,3.258h2.955L335.182,133.19z
				 M330.252,150.226l4.701-10.843l4.701,10.843H330.252z"/>
		</g>
		<g display="inline">
			<path fill="#22305A" d="M391.26,133.19h-0.458l-10.012,22.98h2.955l1.409-3.258h11.753l1.409,3.258h2.954L391.26,133.19z
				 M386.33,150.226l4.699-10.843l4.701,10.843H386.33z"/>
		</g>
		<g display="inline">
			<g>
				<defs>
					<rect id="SVGID_13_" x="155.534" y="133.119" width="25.962" height="23.049"/>
				</defs>
				<defs>
					<rect id="SVGID_14_" x="155.534" y="133.119" width="25.962" height="23.049"/>
				</defs>
				<defs>
					<rect id="SVGID_15_" x="155.534" y="133.119" width="25.962" height="23.049"/>
				</defs>
				<defs>
					<rect id="SVGID_16_" x="155.534" y="133.119" width="25.962" height="23.049"/>
				</defs>
				<clipPath id="SVGID_17_">
					<use xlink:href="#SVGID_13_"  overflow="visible"/>
				</clipPath>
				<clipPath id="SVGID_18_" clip-path="url(#SVGID_17_)">
					<use xlink:href="#SVGID_14_"  overflow="visible"/>
				</clipPath>
				<clipPath id="SVGID_19_" clip-path="url(#SVGID_18_)">
					<use xlink:href="#SVGID_15_"  overflow="visible"/>
				</clipPath>
				<clipPath id="SVGID_20_" clip-path="url(#SVGID_19_)">
					<use xlink:href="#SVGID_16_"  overflow="visible"/>
				</clipPath>
				<g clip-path="url(#SVGID_20_)">
					
						<rect x="151.871" y="137.963" transform="matrix(-0.5622 -0.827 0.827 -0.5622 139.1593 352.399)" fill="#22305A" width="21.973" height="2.804"/>
				</g>
				<g clip-path="url(#SVGID_20_)">
					<polygon fill="#22305A" points="157.922,161.814 179.197,131.024 181.496,132.63 161.589,161.814 					"/>
				</g>
				<g clip-path="url(#SVGID_20_)">
					
						<rect x="149.141" y="130.44" transform="matrix(-0.5623 -0.8269 0.8269 -0.5623 147.5981 341.8074)" fill="#22305A" width="30.235" height="2.804"/>
				</g>
				<g clip-path="url(#SVGID_20_)">
					<rect x="155.117" y="133.119" fill="none" width="33.583" height="22.816"/>
				</g>
			</g>
			<g>
				<g>
					<defs>
						<rect id="SVGID_21_" x="350.201" y="133.156" width="25.962" height="23.049"/>
					</defs>
					<defs>
						<rect id="SVGID_22_" x="350.201" y="133.156" width="25.962" height="23.049"/>
					</defs>
					<defs>
						<rect id="SVGID_23_" x="350.201" y="133.156" width="25.962" height="23.049"/>
					</defs>
					<clipPath id="SVGID_24_">
						<use xlink:href="#SVGID_21_"  overflow="visible"/>
					</clipPath>
					<clipPath id="SVGID_25_" clip-path="url(#SVGID_24_)">
						<use xlink:href="#SVGID_22_"  overflow="visible"/>
					</clipPath>
					<clipPath id="SVGID_26_" clip-path="url(#SVGID_25_)">
						<use xlink:href="#SVGID_23_"  overflow="visible"/>
					</clipPath>
					<g clip-path="url(#SVGID_26_)">
						
							<rect x="346.53" y="138.006" transform="matrix(-0.5622 -0.827 0.827 -0.5622 443.21 513.4517)" fill="#22305A" width="21.973" height="2.803"/>
					</g>
					<g clip-path="url(#SVGID_26_)">
						<polygon fill="#22305A" points="352.589,161.852 373.864,131.062 376.163,132.667 356.256,161.852 						"/>
					</g>
					<g clip-path="url(#SVGID_26_)">
						<rect x="349.784" y="133.156" fill="none" width="33.583" height="22.817"/>
					</g>
				</g>
			</g>
		</g>
	</g>
	<g id="Layer_3" clip-path="url(#SVGID_2_)">
		<g>
			<g>
				<path fill="#FFFFFF" d="M211.914,145.766c0,6.293-5.116,11.408-11.407,11.408s-11.41-5.115-11.41-11.408
					c0-6.29,5.119-11.409,11.41-11.409S211.914,139.476,211.914,145.766z M197.085,137.649c-1.046,0.455-1.99,1.076-2.805,1.891
					c-0.815,0.818-1.435,1.76-1.891,2.803c-0.456,1.076-0.685,2.254-0.685,3.423c0,1.174,0.229,2.35,0.685,3.424
					c0.456,1.043,1.075,1.988,1.891,2.803c0.814,0.813,1.759,1.435,2.805,1.896c1.072,0.452,2.215,0.682,3.422,0.682
					c1.172,0,2.347-0.229,3.422-0.682c1.044-0.461,1.988-1.08,2.804-1.896c0.814-0.814,1.433-1.76,1.889-2.803
					c0.457-1.074,0.686-2.25,0.686-3.424c0-1.169-0.229-2.347-0.686-3.423c-0.456-1.043-1.074-1.984-1.889-2.803
					c-0.815-0.814-1.76-1.436-2.804-1.891c-1.075-0.457-2.25-0.686-3.422-0.686C199.3,136.964,198.157,137.192,197.085,137.649z"/>
			</g>
			<g>
				<path fill="#FFFFFF" d="M266.805,133.845h-0.458l-10.012,22.979h2.955l1.409-3.258h11.753l1.409,3.258h2.955L266.805,133.845z
					 M261.875,150.881l4.7-10.844l4.701,10.844H261.875z"/>
			</g>
			<g>
				<path fill="#FFFFFF" d="M243.223,146.879c-0.099,0.795-0.296,1.576-0.607,2.311c-0.456,1.043-1.074,1.988-1.889,2.803
					c-0.815,0.813-1.76,1.435-2.804,1.896c-1.075,0.452-2.25,0.682-3.422,0.682c-1.207,0-2.35-0.229-3.422-0.682
					c-1.046-0.461-1.99-1.08-2.805-1.896c-0.815-0.814-1.435-1.76-1.891-2.803c-0.456-1.074-0.685-2.25-0.685-3.424
					c0-1.169,0.229-2.347,0.685-3.423c0.456-1.043,1.075-1.984,1.891-2.803c0.814-0.814,1.759-1.436,2.805-1.891
					c1.072-0.457,2.215-0.686,3.422-0.686c1.172,0,2.347,0.229,3.422,0.686c1.044,0.455,1.988,1.076,2.804,1.891
					c0.448,0.451,0.832,0.942,1.168,1.464h2.959c-1.809-3.916-5.763-6.647-10.353-6.647c-6.291,0-11.41,5.119-11.41,11.409
					c0,6.293,5.119,11.408,11.41,11.408c5.915,0,10.789-4.523,11.351-10.295H243.223L243.223,146.879z"/>
			</g>
			<g>
				<polygon fill="#FFFFFF" points="244.752,149.473 235.268,149.473 235.268,146.848 245.783,146.879 				"/>
			</g>
			<g>
				<polygon fill="#FFFFFF" points="312.055,133.543 300.872,144.08 289.689,133.543 289.044,133.543 289.044,156.822 
					291.669,156.822 291.669,139.043 300.833,147.713 310.096,139.021 310.096,156.822 312.702,156.822 312.702,133.543 				"/>
			</g>
			<g>
				<rect x="286.864" y="133.543" fill="none" width="28.019" height="23.279"/>
			</g>
			<g>
				<polygon fill="#FFFFFF" points="294.872,149.76 304.025,141.148 305.825,143.029 296.766,151.514 				"/>
			</g>
			<g>
				<polygon fill="#FFFFFF" points="294.797,156.822 310.257,142.279 312.055,144.191 298.627,156.822 				"/>
			</g>
			<g>
				<polygon fill="#FFFFFF" points="297.527,148.646 290.195,141.749 289.783,144.964 295.729,150.559 				"/>
			</g>
			<polygon fill="none" points="312.702,156.822 298.627,156.822 294.797,156.822 289.044,156.822 289.044,133.543 312.702,133.543 
							"/>
			<g>
				<path fill="#FFFFFF" d="M335.182,133.845h-0.457l-10.012,22.979h2.955l1.408-3.258h11.754l1.408,3.258h2.955L335.182,133.845z
					 M330.252,150.881l4.701-10.844l4.701,10.844H330.252z"/>
			</g>
			<g>
				<path fill="#FFFFFF" d="M391.26,133.845h-0.458l-10.012,22.979h2.955l1.409-3.258h11.753l1.409,3.258h2.954L391.26,133.845z
					 M386.33,150.881l4.699-10.844l4.701,10.844H386.33z"/>
			</g>
			<g>
				<rect x="155.117" y="133.773" fill="none" width="33.583" height="22.816"/>
			</g>
			<g>
				<g>
					<defs>
						<rect id="SVGID_27_" x="155.534" y="133.773" width="25.962" height="23.049"/>
					</defs>
					<clipPath id="SVGID_28_">
						<use xlink:href="#SVGID_27_"  overflow="visible"/>
					</clipPath>
					<g clip-path="url(#SVGID_28_)">
						
							<rect x="151.874" y="138.618" transform="matrix(-0.5622 -0.827 0.827 -0.5622 138.6224 353.4258)" fill="#FFFFFF" width="21.974" height="2.804"/>
					</g>
				</g>
				<g>
					<defs>
						<rect id="SVGID_29_" x="155.534" y="133.773" width="25.962" height="23.049"/>
					</defs>
					<clipPath id="SVGID_30_">
						<use xlink:href="#SVGID_29_"  overflow="visible"/>
					</clipPath>
					<g clip-path="url(#SVGID_30_)">
						<polygon fill="#FFFFFF" points="157.922,162.469 179.197,131.679 181.496,133.284 161.589,162.469 						"/>
					</g>
				</g>
				<g>
					<defs>
						<rect id="SVGID_31_" x="155.534" y="133.773" width="25.962" height="23.049"/>
					</defs>
					<clipPath id="SVGID_32_">
						<use xlink:href="#SVGID_31_"  overflow="visible"/>
					</clipPath>
					<g clip-path="url(#SVGID_32_)">
						
							<rect x="149.129" y="131.11" transform="matrix(-0.5623 -0.827 0.827 -0.5623 147.0176 342.8458)" fill="#FFFFFF" width="30.238" height="2.804"/>
					</g>
				</g>
			</g>
			<g>
				<rect x="349.784" y="133.811" fill="none" width="33.583" height="22.816"/>
			</g>
			<g>
				<g>
					<defs>
						<rect id="SVGID_33_" x="350.201" y="133.811" width="25.962" height="23.048"/>
					</defs>
					<clipPath id="SVGID_34_">
						<use xlink:href="#SVGID_33_"  overflow="visible"/>
					</clipPath>
					<g clip-path="url(#SVGID_34_)">
						
							<rect x="346.533" y="138.66" transform="matrix(-0.5622 -0.827 0.827 -0.5622 442.6986 514.4722)" fill="#FFFFFF" width="21.974" height="2.804"/>
					</g>
				</g>
				<g>
					<defs>
						<rect id="SVGID_35_" x="350.201" y="133.811" width="25.962" height="23.048"/>
					</defs>
					<clipPath id="SVGID_36_">
						<use xlink:href="#SVGID_35_"  overflow="visible"/>
					</clipPath>
					<g clip-path="url(#SVGID_36_)">
						<polygon fill="#FFFFFF" points="352.589,162.506 373.864,131.716 376.163,133.321 356.256,162.506 						"/>
					</g>
				</g>
			</g>
			<rect x="141.334" y="120.228" fill="none" width="279.333" height="54"/>
			<g>
				<path fill="#FFFFFF" d="M235.579,173.202c0-0.104,0.089-0.193,0.207-0.193h0.148c0.104,0,0.162,0.062,0.177,0.148l0.06,0.635
					c0.191-0.207,1.004-0.931,2.186-0.931c1.654,0,2.378,1.05,2.378,2.703v3.16c0,0.104-0.089,0.191-0.192,0.191h-0.266
					c-0.104,0-0.191-0.088-0.191-0.191v-3.16c0-1.358-0.636-2.067-1.758-2.067c-1.211,0-2.053,0.944-2.112,1.021v4.209
					c0,0.117-0.06,0.19-0.192,0.19h-0.28c-0.104,0-0.163-0.088-0.163-0.19v-5.524H235.579z"/>
				<path fill="#FFFFFF" d="M252.753,172.861c1.551,0,2.673,1.138,2.673,2.703c0,0.236,0,0.576-0.222,0.576h-4.711
					c0.059,1.271,0.975,2.332,2.304,2.332c0.782,0,1.388-0.309,1.743-0.545c0.133-0.09,0.191-0.104,0.266,0l0.147,0.205
					c0.044,0.061,0.03,0.148-0.06,0.236c-0.295,0.297-1.226,0.695-2.141,0.695c-1.803,0-2.91-1.39-2.91-3.117
					C249.843,174.266,250.95,172.861,252.753,172.861z M254.776,175.607c0-1.151-0.694-2.155-2.023-2.155
					c-1.301,0-2.172,0.944-2.246,2.155H254.776z"/>
				<path fill="#FFFFFF" d="M263.929,173.245c-0.044-0.134-0.044-0.236,0.089-0.236h0.325c0.074,0,0.162,0.029,0.191,0.134
					l1.389,4.653h0.015l1.758-4.801c0.03-0.104,0.089-0.134,0.177-0.134h0.06c0.074,0,0.147,0.043,0.177,0.134l1.758,4.801h0.016
					l1.389-4.653c0.029-0.104,0.117-0.134,0.191-0.134h0.325c0.133,0,0.133,0.104,0.089,0.236l-1.773,5.688
					c-0.029,0.104-0.088,0.133-0.177,0.133h-0.06c-0.073,0-0.147-0.045-0.177-0.133l-1.787-4.979h-0.015l-1.772,4.979
					c-0.03,0.088-0.104,0.133-0.178,0.133h-0.059c-0.089,0-0.147-0.029-0.178-0.133L263.929,173.245z"/>
				<path fill="#FFFFFF" d="M279.979,173.245c-0.06-0.117-0.045-0.236,0.088-0.236h0.325c0.073,0,0.147,0.046,0.192,0.134
					l2.525,4.991h0.029l2.305-4.991c0.043-0.088,0.117-0.134,0.19-0.134h0.325c0.133,0,0.146,0.119,0.089,0.236l-4.639,9.985
					c-0.029,0.072-0.117,0.117-0.191,0.117h-0.34c-0.118,0-0.162-0.074-0.104-0.207l1.994-4.283L279.979,173.245z"/>
				<path fill="#FFFFFF" d="M297.329,172.861c1.653,0,2.969,1.402,2.969,3.086c0,1.73-1.313,3.117-2.969,3.117
					c-1.669,0-2.97-1.389-2.97-3.117C294.359,174.266,295.66,172.861,297.329,172.861z M297.329,178.46
					c1.301,0,2.319-1.106,2.319-2.512c0-1.359-1.02-2.468-2.319-2.468c-1.313,0-2.334,1.107-2.334,2.468
					C294.995,177.354,296.016,178.46,297.329,178.46z"/>
				<path fill="#FFFFFF" d="M309.479,173.202c0-0.104,0.09-0.193,0.192-0.193h0.179c0.088,0,0.161,0.062,0.176,0.162l0.061,0.606
					c0.146-0.207,0.738-0.916,1.846-0.916c0.473,0,0.799,0.134,0.916,0.177c0.133,0.045,0.207,0.147,0.162,0.269l-0.117,0.295
					c-0.045,0.104-0.134,0.116-0.236,0.073c-0.073-0.03-0.369-0.178-0.768-0.178c-1.152,0-1.715,0.931-1.759,1.021v4.209
					c0,0.117-0.06,0.19-0.192,0.19h-0.295c-0.104,0-0.162-0.088-0.162-0.19v-5.524H309.479z"/>
				<path fill="#FFFFFF" d="M321.646,168.771c0-0.104,0.088-0.191,0.191-0.191h0.251c0.104,0,0.192,0.088,0.192,0.191v6.617
					l3.146-2.289c0.073-0.062,0.162-0.091,0.236-0.091h0.428c0.147,0,0.162,0.193,0.046,0.267l-3.177,2.334l3.56,3.059
					c0.119,0.104,0.045,0.25-0.074,0.25h-0.457c-0.088,0-0.162-0.014-0.295-0.117l-3.412-2.939v2.865
					c0,0.117-0.061,0.191-0.192,0.191h-0.28c-0.104,0-0.162-0.088-0.162-0.191V168.771L321.646,168.771z"/>
			</g>
		</g>
	</g>
</g>
</svg>
